<svg width="192" height="185" viewBox="0 0 192 185" fill="none" xmlns="http://www.w3.org/2000/svg">
<rect x="2" y="2" width="188" height="181" rx="22" stroke="#539CE9" stroke-width="4"/>
<path d="M87.6929 51.3579L83.1436 51.0625C81.8044 47.0843 79.894 44.3468 77.4126 42.8501C74.9705 41.3534 72.7254 40.605 70.6772 40.605C67.3293 40.605 64.9069 41.3534 63.4102 42.8501C61.9134 44.3468 61.165 46.139 61.165 48.2266C61.165 50.5111 61.9922 52.4805 63.6465 54.1348C65.3402 55.7891 67.5065 57.3252 70.1455 58.7432C72.7845 60.1217 75.5811 61.5397 78.5352 62.9971C81.5286 64.415 84.3449 66.0496 86.9839 67.9009C89.6229 69.7127 91.7695 71.8791 93.4238 74.3999C95.1175 76.9207 95.9644 79.9733 95.9644 83.5576C95.9644 86.748 94.9206 90.0566 92.833 93.4834C90.7848 96.8708 87.6338 99.7461 83.3799 102.109C79.1654 104.433 73.7692 105.595 67.1914 105.595C65.4189 105.595 63.2329 105.379 60.6333 104.945C58.0337 104.512 55.4538 103.902 52.8936 103.114C50.3333 102.326 48.2064 101.4 46.5127 100.337C46.2764 100.219 46.0794 99.4704 45.9219 98.0918C45.8037 96.7132 45.7643 95.0195 45.8037 93.0107C45.8431 91.002 45.9613 88.9538 46.1582 86.8662C46.3945 84.7393 46.7293 82.8486 47.1626 81.1943L51.9482 81.4307C53.6025 85.724 55.9264 89.4264 58.9199 92.5381C61.9134 95.6104 65.2614 97.1465 68.9639 97.1465C72.2331 97.1465 75.0099 96.4572 77.2944 95.0786C79.6183 93.6606 80.7803 91.2186 80.7803 87.7524C80.7803 84.7983 79.9531 82.3563 78.2988 80.4263C76.6445 78.4569 74.4979 76.7632 71.8589 75.3452C69.2593 73.8879 66.4824 72.5093 63.5283 71.2095C60.5742 69.8703 57.7777 68.3932 55.1387 66.7783C52.5391 65.1634 50.4121 63.194 48.7578 60.8701C47.1035 58.5462 46.2764 55.6315 46.2764 52.126C46.2764 50.4323 46.8081 48.5417 47.8716 46.4541C48.9351 44.3665 50.5697 42.3774 52.7754 40.4868C54.9811 38.5568 57.7777 36.9813 61.165 35.7603C64.5524 34.5392 68.57 33.9287 73.2178 33.9287C77.5111 33.9287 81.4696 34.4014 85.0933 35.3467C88.7563 36.292 91.2575 37.4736 92.5967 38.8916C92.833 39.1279 92.7936 39.8172 92.4785 40.9595C92.2028 42.1017 91.7695 43.4212 91.1787 44.918C90.5879 46.3753 89.9577 47.7145 89.2881 48.9355C88.6579 50.1566 88.1261 50.964 87.6929 51.3579Z" fill="white"/>
<path d="M145.693 88.3579L141.144 88.0625C139.804 84.0843 137.894 81.3468 135.413 79.8501C132.971 78.3534 130.725 77.605 128.677 77.605C125.329 77.605 122.907 78.3534 121.41 79.8501C119.913 81.3468 119.165 83.139 119.165 85.2266C119.165 87.5111 119.992 89.4805 121.646 91.1348C123.34 92.7891 125.507 94.3252 128.146 95.7432C130.785 97.1217 133.581 98.5397 136.535 99.9971C139.529 101.415 142.345 103.05 144.984 104.901C147.623 106.713 149.77 108.879 151.424 111.4C153.118 113.921 153.964 116.973 153.964 120.558C153.964 123.748 152.921 127.057 150.833 130.483C148.785 133.871 145.634 136.746 141.38 139.109C137.165 141.433 131.769 142.595 125.191 142.595C123.419 142.595 121.233 142.379 118.633 141.945C116.034 141.512 113.454 140.902 110.894 140.114C108.333 139.326 106.206 138.4 104.513 137.337C104.276 137.219 104.079 136.47 103.922 135.092C103.804 133.713 103.764 132.02 103.804 130.011C103.843 128.002 103.961 125.954 104.158 123.866C104.395 121.739 104.729 119.849 105.163 118.194L109.948 118.431C111.603 122.724 113.926 126.426 116.92 129.538C119.913 132.61 123.261 134.146 126.964 134.146C130.233 134.146 133.01 133.457 135.294 132.079C137.618 130.661 138.78 128.219 138.78 124.752C138.78 121.798 137.953 119.356 136.299 117.426C134.645 115.457 132.498 113.763 129.859 112.345C127.259 110.888 124.482 109.509 121.528 108.209C118.574 106.87 115.778 105.393 113.139 103.778C110.539 102.163 108.412 100.194 106.758 97.8701C105.104 95.5462 104.276 92.6315 104.276 89.126C104.276 87.4323 104.808 85.5417 105.872 83.4541C106.935 81.3665 108.57 79.3774 110.775 77.4868C112.981 75.5568 115.778 73.9813 119.165 72.7603C122.552 71.5392 126.57 70.9287 131.218 70.9287C135.511 70.9287 139.47 71.4014 143.093 72.3467C146.756 73.292 149.257 74.4736 150.597 75.8916C150.833 76.1279 150.794 76.8172 150.479 77.9595C150.203 79.1017 149.77 80.4212 149.179 81.918C148.588 83.3753 147.958 84.7145 147.288 85.9355C146.658 87.1566 146.126 87.964 145.693 88.3579Z" fill="white"/>
</svg>
