<svg width="99" height="73" viewBox="0 0 99 73" fill="none" xmlns="http://www.w3.org/2000/svg">
<path d="M36.4155 14.4585L33.8159 14.104C31.9647 11.3075 29.8377 9.37744 27.4351 8.31396C25.0718 7.25049 22.866 6.71875 20.8179 6.71875C16.9578 6.71875 14.1613 7.70345 12.4282 9.67285C10.7345 11.6423 9.8877 13.6707 9.8877 15.7583C9.8877 18.0428 10.6951 20.0122 12.3101 21.6665C13.9644 23.2814 16.0913 24.7585 18.6909 26.0977C21.3299 27.4368 24.1068 28.8154 27.0215 30.2334C29.9362 31.612 32.6934 33.2072 35.293 35.019C37.8926 36.7915 40.0195 38.9382 41.6738 41.459C43.3281 43.9404 44.1553 46.9733 44.1553 50.5576C44.1553 53.748 43.2297 57.0566 41.3784 60.4834C39.5666 63.8708 36.7897 66.7461 33.0479 69.1094C29.306 71.4333 24.5597 72.5952 18.8091 72.5952C16.3276 72.5952 13.3932 72.1226 10.0059 71.1772C6.61849 70.2319 3.64469 68.9518 1.08447 67.3369C0.72998 67.14 0.493652 66.1159 0.375488 64.2646C0.257324 62.374 0.257324 60.2668 0.375488 57.9429C0.53304 55.5796 0.808757 53.6299 1.20264 52.0938L4.09766 52.3892C5.75195 56.6431 8.15462 59.9123 11.3057 62.1968C14.4567 64.4813 17.8835 65.6235 21.5859 65.6235C23.7523 65.6235 25.8398 65.1115 27.8486 64.0874C29.8968 63.0633 31.5708 61.665 32.8706 59.8926C34.2098 58.0807 34.8794 56.0326 34.8794 53.748C34.8794 50.7939 34.0522 48.3519 32.3979 46.4219C30.783 44.4919 28.6758 42.8376 26.0762 41.459C23.4766 40.041 20.7194 38.7018 17.8047 37.4414C14.9294 36.181 12.1919 34.763 9.59229 33.1875C7.03206 31.612 4.9248 29.682 3.27051 27.3975C1.6556 25.0736 0.848145 22.1589 0.848145 18.6533C0.848145 16.3688 1.59652 13.848 3.09326 11.0908C4.62939 8.33366 7.09115 5.95068 10.4785 3.94189C13.8659 1.93311 18.3167 0.928711 23.8311 0.928711C27.376 0.928711 30.7633 1.40137 33.9932 2.34668C37.223 3.29199 39.4878 4.47363 40.7876 5.8916C41.1421 6.16732 41.0436 6.91569 40.4922 8.13672C39.9801 9.31836 39.3105 10.5394 38.4834 11.7998C37.6956 13.0602 37.0063 13.9465 36.4155 14.4585ZM91.1255 14.4585L88.5259 14.104C86.6746 11.3075 84.5477 9.37744 82.145 8.31396C79.7817 7.25049 77.576 6.71875 75.5278 6.71875C71.6678 6.71875 68.8713 7.70345 67.1382 9.67285C65.4445 11.6423 64.5977 13.6707 64.5977 15.7583C64.5977 18.0428 65.4051 20.0122 67.02 21.6665C68.6743 23.2814 70.8013 24.7585 73.4009 26.0977C76.0399 27.4368 78.8167 28.8154 81.7314 30.2334C84.6462 31.612 87.4033 33.2072 90.0029 35.019C92.6025 36.7915 94.7295 38.9382 96.3838 41.459C98.0381 43.9404 98.8652 46.9733 98.8652 50.5576C98.8652 53.748 97.9396 57.0566 96.0884 60.4834C94.2765 63.8708 91.4997 66.7461 87.7578 69.1094C84.016 71.4333 79.2697 72.5952 73.519 72.5952C71.0376 72.5952 68.1032 72.1226 64.7158 71.1772C61.3285 70.2319 58.3547 68.9518 55.7944 67.3369C55.4399 67.14 55.2036 66.1159 55.0854 64.2646C54.9673 62.374 54.9673 60.2668 55.0854 57.9429C55.243 55.5796 55.5187 53.6299 55.9126 52.0938L58.8076 52.3892C60.4619 56.6431 62.8646 59.9123 66.0156 62.1968C69.1667 64.4813 72.5934 65.6235 76.2959 65.6235C78.4622 65.6235 80.5498 65.1115 82.5586 64.0874C84.6068 63.0633 86.2808 61.665 87.5806 59.8926C88.9198 58.0807 89.5894 56.0326 89.5894 53.748C89.5894 50.7939 88.7622 48.3519 87.1079 46.4219C85.493 44.4919 83.3857 42.8376 80.7861 41.459C78.1865 40.041 75.4294 38.7018 72.5146 37.4414C69.6393 36.181 66.9019 34.763 64.3022 33.1875C61.742 31.612 59.6348 29.682 57.9805 27.3975C56.3656 25.0736 55.5581 22.1589 55.5581 18.6533C55.5581 16.3688 56.3065 13.848 57.8032 11.0908C59.3394 8.33366 61.8011 5.95068 65.1885 3.94189C68.5758 1.93311 73.0267 0.928711 78.541 0.928711C82.0859 0.928711 85.4733 1.40137 88.7031 2.34668C91.9329 3.29199 94.1978 4.47363 95.4976 5.8916C95.8521 6.16732 95.7536 6.91569 95.2021 8.13672C94.6901 9.31836 94.0205 10.5394 93.1934 11.7998C92.4056 13.0602 91.7163 13.9465 91.1255 14.4585Z" fill="url(#paint0_radial_88_2)"/>
<defs>
<radialGradient id="paint0_radial_88_2" cx="0" cy="0" r="1" gradientUnits="userSpaceOnUse" gradientTransform="translate(104 109) rotate(-123.521) scale(139.432 108.205)">
<stop stop-color="white"/>
<stop offset="1" stop-color="#64C9FB"/>
</radialGradient>
</defs>
</svg>
