<svg width="378" height="204" viewBox="0 0 378 204" fill="none" xmlns="http://www.w3.org/2000/svg">
<circle cx="189" cy="102" r="82" fill="white"/>
<path d="M274.639 69.9024C280.092 67.8589 286.226 70.6146 287.696 76.2487C293.238 97.4866 291.802 120.051 283.436 140.546C273.737 164.31 255.435 183.543 232.182 194.409C208.928 205.275 182.434 206.975 157.982 199.169C133.531 191.364 112.921 174.628 100.264 152.299C87.6076 129.97 83.8341 103.69 89.6967 78.7019C95.5594 53.7137 110.627 31.8543 131.894 17.4845C153.161 3.11471 179.064 -2.70908 204.435 1.17496C226.317 4.52476 246.415 14.883 261.791 30.5469C265.869 34.7023 265.083 41.3808 260.529 45.0093C255.975 48.6377 249.385 47.8275 245.195 43.7835C233.212 32.2158 217.877 24.5645 201.244 22.0182C181.118 18.9371 160.57 23.5569 143.7 34.9561C126.829 46.3553 114.876 63.6958 110.225 83.5183C105.575 103.34 108.568 124.188 118.608 141.901C128.649 159.614 144.998 172.89 164.395 179.082C183.791 185.274 204.809 183.925 223.255 175.305C241.701 166.686 256.219 151.429 263.914 132.578C270.273 116.999 271.584 99.912 267.815 83.6883C266.497 78.0167 269.187 71.946 274.639 69.9024Z" fill="url(#paint0_linear_85_2)"/>
<defs>
<linearGradient id="paint0_linear_85_2" x1="74.5654" y1="91.2148" x2="315.124" y2="92.0983" gradientUnits="userSpaceOnUse">
<stop stop-color="#AA367C"/>
<stop offset="1" stop-color="#4A2FBD"/>
</linearGradient>
</defs>
</svg>
